<svg width="28" height="28" fill="none" xmlns="http://www.w3.org/2000/svg"><path fill-rule="evenodd" clip-rule="evenodd" d="M12.236 4.42a6.125 6.125 0 0 1 4.33-1.795h3.15a.875.875 0 0 1 .876.875v4.2a.875.875 0 0 1-.875.875h-3.15a.175.175 0 0 0-.175.175v2.275h3.325a.874.874 0 0 1 .85 1.087l-1.05 4.2a.875.875 0 0 1-.85.663h-2.275V24.5a.875.875 0 0 1-.875.875h-4.2a.875.875 0 0 1-.875-.875v-7.525H8.167a.875.875 0 0 1-.875-.875v-4.2a.875.875 0 0 1 .875-.875h2.275V8.75c0-1.624.645-3.182 1.794-4.33Zm4.33-.045a4.375 4.375 0 0 0-4.374 4.375v3.15a.875.875 0 0 1-.875.875H9.042v2.45h2.275a.875.875 0 0 1 .875.875v7.525h2.45V16.1a.875.875 0 0 1 .875-.875h2.466l.613-2.45h-3.08a.875.875 0 0 1-.874-.875V8.75a1.925 1.925 0 0 1 1.925-1.925h2.275v-2.45h-2.275Z" fill="#3475FF"/></svg>