<svg width="169" height="57" fill="none" xmlns="http://www.w3.org/2000/svg"><path fill-rule="evenodd" clip-rule="evenodd" d="M3.605 16.23 25.03 3.94l20.987 12.038 3.85-1.73L25.03 0 .188 14.25v28.5L25.03 57l24.767-14.207-3.872-1.718L25.03 53.061 3.605 40.77V16.229Z" fill="#3475FF"/><path fill-rule="evenodd" clip-rule="evenodd" d="m6.087 17.834 18.94-10.686 18.194 10.264 1.07-.544L25.028 6 5.087 17.25v22.5L25.027 51 42.95 40.89l-1.112-.522-16.81 9.484-18.94-10.686V17.834Z" fill="#323340"/><g clip-path="url('#clip0_17_89')"><path d="m28.626 26.646-5.364-5.357A7.004 7.004 0 0 1 30.051 16c1.018 0 1.983.222 2.856.612l-3.123 3.12a2.5 2.5 0 0 0 0 3.536 2.506 2.506 0 0 0 3.54 0l3.123-3.12c.39.872.613 1.836.613 2.853 0 2.704-1.55 5.026-3.797 6.19l-3.585-3.592-1.05 1.048-.002-.001Zm-14.748 8.34a2.945 2.945 0 0 0 0 4.168 2.953 2.953 0 0 0 4.173 0l6.593-6.586L20.47 28.4l-6.592 6.586Zm15.798-6.56-1.05 1.048-7.604-7.596v-2.85L15.766 16l-2.752 2.749L16.044 24h2.854l7.605 7.596-.995.994 6.555 6.548a2.948 2.948 0 0 0 4.168 0c1.151-1.15 1.006-2.868 0-4.163l-6.555-6.548v-.001Z" fill="#323340"/></g><path d="M51.441 36.19h-1.728V21.888h-2.856V36.19H45.13V20.399h6.312V36.19Zm7.19-2.88V23.28c0-.528-.169-.928-.505-1.2a1.602 1.602 0 0 0-1.104-.432c-.416 0-.784.144-1.104.432-.32.272-.48.672-.48 1.2V33.31c0 .528.16.936.48 1.224.32.272.688.408 1.104.408.416 0 .784-.136 1.104-.408.336-.288.504-.696.504-1.224Zm-4.92-.071V23.35c0-.96.327-1.728.983-2.304a3.417 3.417 0 0 1 2.328-.888c.88 0 1.656.296 2.328.888.672.576 1.008 1.344 1.008 2.304v9.888c0 .96-.336 1.736-1.008 2.328a3.471 3.471 0 0 1-2.328.864c-.88 0-1.656-.288-2.328-.864-.656-.592-.984-1.368-.984-2.328Zm17.073 5.784h-1.632V36.19H63.56v2.832h-1.632v-4.32h.984c.592-2.112.968-4.064 1.128-5.856.176-1.808.264-4.12.264-6.936v-1.512h5.256v14.304h1.224v4.32Zm-6.168-4.32h3.192V21.887H65.96c0 2.896-.08 5.232-.24 7.008-.144 1.76-.512 3.696-1.104 5.808Zm9.703 1.488h-1.728V20.399h1.728V36.19Zm2.859.12c-.576 0-1.048-.08-1.416-.24v-1.152h.72c.832 0 1.36-.848 1.584-2.544.224-1.696.336-4.92.336-9.672v-2.304h5.496V36.19H82.17V21.887h-2.136v.816c0 5.216-.184 8.792-.552 10.728-.368 1.92-1.136 2.88-2.304 2.88Zm9.568 0c-.576 0-1.048-.08-1.416-.24v-1.152h.72c.832 0 1.36-.848 1.584-2.544.224-1.696.336-4.92.336-9.672v-2.304h5.496V36.19h-1.728V21.887h-2.136v.816c0 5.216-.184 8.792-.552 10.728-.368 1.92-1.136 2.88-2.304 2.88Zm13.792-6.6-1.536.168-1.608 6.312h-1.776l1.8-6.72c-1.056-.608-1.584-1.488-1.584-2.64v-3.552c0-.848.336-1.576 1.008-2.184.688-.624 1.504-.936 2.448-.936h.12c.656 0 1.608.2 2.856.6V36.19h-1.728v-6.48Zm-2.976-6.432v3.648c0 .48.152.872.456 1.176.32.304.744.456 1.272.456h1.248v-6.912H99.29c-.528 0-.952.152-1.272.456-.304.304-.456.696-.456 1.176Zm19.761 12.912h-1.728l-.048-13.344-1.632 9.576h-1.584l-1.656-9.576-.072 13.344h-1.728l.312-15.792h2.088l1.848 9.528 1.824-9.528h2.088l.288 15.792Zm7.383 0-.648-4.56h-2.88l-.648 4.56h-1.608l2.424-15.792h2.616l2.424 15.792h-1.68Zm-2.088-14.544-1.224 8.496h2.448l-1.224-8.496Zm9.713-3.624h1.56c-.176 1.232-.992 1.848-2.448 1.848s-2.272-.616-2.448-1.848h1.56c0 .544.296.816.888.816.592 0 .888-.272.888-.816Zm2.472 18.168h-1.68V25.27l-3.528 10.92h-1.488V20.399h1.68v10.944l3.528-10.944h1.488V36.19Zm8.044-.216a5.745 5.745 0 0 1-2.208.456h-.144c-1.136 0-1.992-.288-2.568-.864-.56-.592-.84-1.344-.84-2.256V23.279c0-.912.28-1.656.84-2.232.576-.592 1.432-.888 2.568-.888h.144c.736 0 1.472.152 2.208.456v1.032h-2.352c-.656 0-1.104.152-1.344.456-.224.288-.336.68-.336 1.176V33.31c0 .496.112.896.336 1.2.24.288.688.432 1.344.432h2.352v1.032Zm8.083-14.088h-2.64V36.19h-1.728V21.887h-2.64v-1.488h7.008v1.488Zm7.086 14.304h-5.4V20.399h5.4v1.488h-3.672v5.184h3.192v1.488h-3.192v6.144h3.672v1.488Zm8.351-8.64c0 .864-.312 1.6-.936 2.208-.624.608-1.4.912-2.328.912h-.072c-.416 0-.872-.096-1.368-.288v5.808h-1.728V20.639a8.99 8.99 0 0 1 2.856-.48h.12c.944 0 1.752.312 2.424.936.688.608 1.032 1.336 1.032 2.184v4.272Zm-1.728.096v-4.368c0-.48-.16-.872-.48-1.176-.304-.304-.72-.456-1.248-.456h-1.248v7.632h1.248c.528 0 .944-.152 1.248-.456.32-.304.48-.696.48-1.176Z" fill="#323340"/><defs><clipPath id="clip0_17_89"><path fill="#fff" transform="translate(13.014 16)" d="M0 0h24.027v24H0z"/></clipPath></defs></svg>