<svg width="20" height="25" fill="none" xmlns="http://www.w3.org/2000/svg"><path fill-rule="evenodd" clip-rule="evenodd" d="M4.458 10.667a5.542 5.542 0 1 1 11.084 0 5.542 5.542 0 0 1-11.084 0ZM10 6.875a3.792 3.792 0 1 0 0 7.583 3.792 3.792 0 0 0 0-7.583Z" fill="#3475FF"/><path fill-rule="evenodd" clip-rule="evenodd" d="M.111 9.333A9.672 9.672 0 0 1 9.748.458h.504a9.672 9.672 0 0 1 9.637 8.875 10.43 10.43 0 0 1-2.322 7.462l-5.592 6.838a2.55 2.55 0 0 1-3.95 0l-5.592-6.838A10.43 10.43 0 0 1 .111 9.333Zm9.637-7.125a7.922 7.922 0 0 0-7.891 7.269 8.68 8.68 0 0 0 1.932 6.21l5.591 6.839a.801.801 0 0 0 1.242 0l5.592-6.84a8.68 8.68 0 0 0 1.93-6.21 7.922 7.922 0 0 0-7.893-7.268h-.503Z" fill="#3475FF"/></svg>