<svg width="28" height="28" fill="none" xmlns="http://www.w3.org/2000/svg"><path d="M26 18.578a5.997 5.997 0 0 1-3 5.191V25a1 1 0 0 1-2 0v-1.844a1 1 0 0 1 .599-.916A4 4 0 0 0 24 18.578c0-1.065-.41-2.27-1-3.069v.962c0 1.517-1.076 2.835-2.504 3.067a3.02 3.02 0 0 1-2.439-.674A2.994 2.994 0 0 1 17 16.578v-1.069c-.59.8-1 2.004-1 3.069a4 4 0 0 0 2.401 3.662 1 1 0 0 1 .599.916V25a1 1 0 0 1-2 0v-1.231a5.996 5.996 0 0 1-3-5.191c0-2.013.952-4.161 2.316-5.222 1.028-.861 2.728-.056 2.684 1.29v1.932c-.011.605.575 1.101 1.175.985.462-.075.825-.555.825-1.093v-1.824c-.044-1.346 1.657-2.151 2.684-1.29C25.048 14.417 26 16.564 26 18.578ZM11.141 17.08A8.227 8.227 0 0 0 10 16.999C5.589 17 2 20.589 2 25a1 1 0 0 0 2 0 6.006 6.006 0 0 1 6.859-5.939 1 1 0 1 0 .282-1.981ZM2.5 9a1 1 0 0 1 1-1H4v-.5C4 4.467 6.467 2 9.5 2h1C13.533 2 16 4.467 16 7.5V8h.5a1 1 0 0 1 0 2H16c0 3.309-2.691 6-6 6s-6-2.691-6-6h-.5a1 1 0 0 1-1-1ZM14 10H6c0 2.206 1.794 4 4 4s4-1.794 4-4ZM6 8h8v-.5c0-1.758-1.308-3.204-3-3.449V6a1 1 0 0 1-2 0V4.051C7.308 4.296 6 5.742 6 7.5V8Z" fill="#3475FF"/></svg>