<svg width="28" height="28" fill="none" xmlns="http://www.w3.org/2000/svg"><path d="M14.9 3.92A.919.919 0 0 1 15.818 3 9.192 9.192 0 0 1 25 12.183a.918.918 0 1 1-1.836 0 7.354 7.354 0 0 0-7.346-7.345.918.918 0 0 1-.918-.918Zm.918 4.59a3.672 3.672 0 0 1 3.673 3.673.918.918 0 0 0 1.836 0 5.515 5.515 0 0 0-5.509-5.509.918.918 0 0 0 0 1.837Zm8.35 9.86a2.846 2.846 0 0 1 0 4.02l-.836.964c-7.52 7.2-25.819-11.095-18.73-18.64l1.055-.917a2.829 2.829 0 0 1 3.973.036c.028.029 1.73 2.239 1.73 2.239a2.847 2.847 0 0 1-.007 3.932L10.29 11.34a11.735 11.735 0 0 0 6.364 6.377l1.345-1.07a2.846 2.846 0 0 1 3.93-.005s2.21 1.7 2.238 1.729Zm-1.264 1.336s-2.197-1.69-2.226-1.719a1.01 1.01 0 0 0-1.422 0c-.025.026-1.877 1.501-1.877 1.501a.917.917 0 0 1-.899.14 13.781 13.781 0 0 1-8.099-8.088.918.918 0 0 1 .133-.918s1.476-1.853 1.5-1.876a1.01 1.01 0 0 0 0-1.423 461.87 461.87 0 0 1-1.718-2.226 1.01 1.01 0 0 0-1.387.036l-1.055.918C.674 12.28 16.53 27.258 21.989 22.1l.837-.965a1.03 1.03 0 0 0 .078-1.43Z" fill="#3475FF"/></svg>