<svg width="24" height="24" viewBox="0 0 24 24" fill="none" xmlns="http://www.w3.org/2000/svg">
<path d="M12.9002 1.91964C12.9002 1.67613 12.997 1.44258 13.1691 1.27039C13.3413 1.0982 13.5749 1.00147 13.8184 1.00147C16.2527 1.00414 18.5865 1.97236 20.3078 3.69369C22.0291 5.41502 22.9973 7.74888 23 10.1832C23 10.4267 22.9033 10.6603 22.7311 10.8325C22.5589 11.0047 22.3253 11.1014 22.0818 11.1014C21.8383 11.1014 21.6048 11.0047 21.4326 10.8325C21.2604 10.6603 21.1637 10.4267 21.1637 10.1832C21.1615 8.23577 20.3869 6.3687 19.0099 4.99165C17.6328 3.61459 15.7658 2.84 13.8184 2.83782C13.5749 2.83782 13.3413 2.74108 13.1691 2.56889C12.997 2.3967 12.9002 2.16316 12.9002 1.91964ZM13.8184 6.51052C14.7924 6.51052 15.7266 6.89746 16.4153 7.58622C17.1041 8.27499 17.491 9.20916 17.491 10.1832C17.491 10.4267 17.5878 10.6603 17.76 10.8325C17.9321 11.0047 18.1657 11.1014 18.4092 11.1014C18.6527 11.1014 18.8862 11.0047 19.0584 10.8325C19.2306 10.6603 19.3274 10.4267 19.3274 10.1832C19.3259 8.72257 18.745 7.32217 17.7122 6.28934C16.6794 5.25651 15.279 4.67562 13.8184 4.67417C13.5749 4.67417 13.3413 4.7709 13.1691 4.94309C12.997 5.11528 12.9002 5.34883 12.9002 5.59234C12.9002 5.83586 12.997 6.0694 13.1691 6.24159C13.3413 6.41378 13.5749 6.51052 13.8184 6.51052ZM22.1672 16.3708C22.6993 16.9044 22.9981 17.6271 22.9981 18.3807C22.9981 19.1342 22.6993 19.857 22.1672 20.3906L21.3317 21.3537C13.812 28.5531 -4.487 10.2585 2.6012 2.71478L3.65709 1.79661C4.19125 1.27938 4.90756 0.993248 5.65106 1.00012C6.39457 1.00699 7.10547 1.30632 7.62997 1.83333C7.65844 1.8618 9.35979 4.07184 9.35979 4.07184C9.86462 4.60221 10.1456 5.30672 10.1445 6.03894C10.1433 6.77116 9.85993 7.47476 9.35336 8.00347L8.29013 9.34033C8.87853 10.77 9.74364 12.0694 10.8357 13.1637C11.9278 14.258 13.2254 15.1258 14.6539 15.7171L15.999 14.6474C16.5278 14.1412 17.2312 13.8582 17.9632 13.8572C18.6952 13.8562 19.3995 14.1372 19.9297 14.6419C19.9297 14.6419 22.1388 16.3423 22.1672 16.3708ZM20.9038 17.7058C20.9038 17.7058 18.7067 16.0155 18.6782 15.987C18.4891 15.7994 18.2335 15.6942 17.9671 15.6942C17.7007 15.6942 17.4451 15.7994 17.256 15.987C17.2312 16.0127 15.3793 17.4882 15.3793 17.4882C15.2545 17.5876 15.1059 17.6527 14.9483 17.6771C14.7907 17.7016 14.6294 17.6846 14.4804 17.6278C12.6298 16.9388 10.9489 15.86 9.55154 14.4647C8.15418 13.0694 7.07302 11.3901 6.38127 9.54049C6.31994 9.38941 6.29994 9.22472 6.32334 9.06335C6.34674 8.90198 6.41269 8.74976 6.51441 8.62232C6.51441 8.62232 7.98989 6.76944 8.01468 6.74557C8.20224 6.55641 8.30747 6.30082 8.30747 6.03444C8.30747 5.76806 8.20224 5.51247 8.01468 5.32332C7.98622 5.29577 6.29589 3.09674 6.29589 3.09674C6.1039 2.92459 5.85333 2.83239 5.59556 2.83905C5.33778 2.84571 5.09231 2.95072 4.90946 3.13255L3.85358 4.05072C-1.32669 10.2796 14.5309 25.2578 19.9893 20.0995L20.8258 19.1354C21.0218 18.9539 21.1395 18.7032 21.1541 18.4364C21.1687 18.1696 21.0789 17.9076 20.9038 17.7058Z" fill="#3475FF"/>
</svg>
