<svg width="28" height="28" viewBox="0 0 28 28" fill="none" xmlns="http://www.w3.org/2000/svg">
<path fill-rule="evenodd" clip-rule="evenodd" d="M12.2361 4.41933C13.3846 3.27063 14.9424 2.62519 16.5667 2.625H19.7167C19.9488 2.625 20.1714 2.71719 20.3355 2.88128C20.4996 3.04538 20.5917 3.26794 20.5917 3.5V7.7C20.5917 7.93206 20.4996 8.15462 20.3355 8.31872C20.1714 8.48281 19.9488 8.575 19.7167 8.575H16.5667C16.5438 8.575 16.521 8.57953 16.4998 8.58832C16.4785 8.59712 16.4593 8.61001 16.443 8.62626C16.4268 8.64251 16.4139 8.6618 16.4051 8.68303C16.3963 8.70426 16.3917 8.72702 16.3917 8.75V11.025H19.7167C19.8498 11.0249 19.9811 11.0552 20.1006 11.1135C20.2202 11.1718 20.3249 11.2565 20.4068 11.3614C20.4887 11.4662 20.5456 11.5883 20.5732 11.7185C20.6008 11.8486 20.5984 11.9833 20.5661 12.1123L19.5161 16.3123C19.4687 16.5017 19.3594 16.6698 19.2055 16.7899C19.0516 16.9099 18.8619 16.9751 18.6667 16.975H16.3917V24.5C16.3917 24.7321 16.2996 24.9546 16.1355 25.1187C15.9714 25.2828 15.7488 25.375 15.5167 25.375H11.3167C11.0847 25.375 10.8621 25.2828 10.698 25.1187C10.5339 24.9546 10.4417 24.7321 10.4417 24.5V16.975H8.16675C7.93468 16.975 7.71212 16.8828 7.54803 16.7187C7.38394 16.5546 7.29175 16.3321 7.29175 16.1V11.9C7.29175 11.7851 7.31438 11.6713 7.35835 11.5652C7.40233 11.459 7.46678 11.3625 7.54803 11.2813C7.62928 11.2 7.72574 11.1356 7.8319 11.0916C7.93806 11.0476 8.05184 11.025 8.16675 11.025H10.4417V8.75C10.4419 7.12562 11.0874 5.56785 12.2361 4.41933ZM16.5667 4.375C15.4064 4.375 14.2936 4.83594 13.4732 5.65641C12.6527 6.47688 12.1917 7.58968 12.1917 8.75V11.9C12.1917 12.1321 12.0996 12.3546 11.9355 12.5187C11.7714 12.6828 11.5488 12.775 11.3167 12.775H9.04175V15.225H11.3167C11.5488 15.225 11.7714 15.3172 11.9355 15.4813C12.0996 15.6454 12.1917 15.8679 12.1917 16.1V23.625H14.6417V16.1C14.6417 15.8679 14.7339 15.6454 14.898 15.4813C15.0621 15.3172 15.2847 15.225 15.5167 15.225H17.9831L18.5956 12.775H15.5167C15.2847 12.775 15.0621 12.6828 14.898 12.5187C14.7339 12.3546 14.6417 12.1321 14.6417 11.9V8.75C14.6417 8.23946 14.8446 7.74983 15.2056 7.38882C15.5666 7.02781 16.0562 6.825 16.5667 6.825H18.8417V4.375H16.5667Z" fill="#3475FF"/>
</svg>
