<svg width="169" height="57" viewBox="0 0 169 57" fill="none" xmlns="http://www.w3.org/2000/svg">
<path fill-rule="evenodd" clip-rule="evenodd" d="M3.60532 16.2292L25.0302 3.93936L46.0168 15.9778L49.8672 14.2471L25.0302 0L0.188238 14.25V42.75L25.0302 57L49.7966 42.7934L45.9247 41.075L25.0302 53.0606L3.60532 40.7708V16.2292Z" fill="#3475FF"/>
<path fill-rule="evenodd" clip-rule="evenodd" d="M6.08688 17.834L25.0278 7.14817L43.2208 17.4121L44.2909 16.8676L25.0278 6L5.08688 17.25V39.75L25.0278 51L42.9488 40.8896L41.8373 40.3685L25.0278 49.8518L6.08688 39.166V17.834Z" fill="#323340"/>
<g clip-path="url(#clip0_17_89)">
<path d="M28.6264 26.646L23.2624 21.289C24.0283 18.252 26.7723 16 30.051 16C31.0692 16 32.0342 16.222 32.9072 16.612L29.7837 19.732C28.8066 20.708 28.8066 22.291 29.7837 23.268C30.7608 24.244 32.3456 24.244 33.3237 23.268L36.4472 20.148C36.8376 21.02 37.0599 21.984 37.0599 23.001C37.0599 25.705 35.5101 28.027 33.2626 29.191L29.6776 25.599L28.6284 26.647L28.6264 26.646ZM13.8779 34.986C12.7256 36.137 12.7256 38.003 13.8779 39.154C15.0302 40.305 16.8983 40.305 18.0506 39.154L24.644 32.568L20.4703 28.4L13.8779 34.986ZM29.6756 28.426L28.6264 29.474L21.0219 21.878V19.028L15.766 16L13.0139 18.749L16.0443 24H18.8985L26.503 31.596L25.5079 32.59L32.0633 39.138C33.2146 40.288 35.0796 40.288 36.2309 39.138C37.3822 37.988 37.2371 36.27 36.2309 34.975L29.6756 28.427V28.426Z" fill="#323340"/>
</g>
<path d="M51.4412 36.1909H49.7132V21.8869H46.8572V36.1909H45.1292V20.3989H51.4412V36.1909ZM58.6301 33.3109V23.2789C58.6301 22.7509 58.4621 22.3509 58.1261 22.0789C57.8061 21.7909 57.4381 21.6469 57.0221 21.6469C56.6061 21.6469 56.2381 21.7909 55.9181 22.0789C55.5981 22.3509 55.4381 22.7509 55.4381 23.2789V33.3109C55.4381 33.8389 55.5981 34.2469 55.9181 34.5349C56.2381 34.8069 56.6061 34.9429 57.0221 34.9429C57.4381 34.9429 57.8061 34.8069 58.1261 34.5349C58.4621 34.2469 58.6301 33.8389 58.6301 33.3109ZM53.7101 33.2389V23.3509C53.7101 22.3909 54.0381 21.6229 54.6941 21.0469C55.3661 20.4549 56.1421 20.1589 57.0221 20.1589C57.9021 20.1589 58.6781 20.4549 59.3501 21.0469C60.0221 21.6229 60.3581 22.3909 60.3581 23.3509V33.2389C60.3581 34.1989 60.0221 34.9749 59.3501 35.5669C58.6781 36.1429 57.9021 36.4309 57.0221 36.4309C56.1421 36.4309 55.3661 36.1429 54.6941 35.5669C54.0381 34.9749 53.7101 34.1989 53.7101 33.2389ZM70.7843 39.0229H69.1523V36.1909H63.5603V39.0229H61.9283V34.7029H62.9123C63.5043 32.5909 63.8803 30.6389 64.0403 28.8469C64.2163 27.0389 64.3043 24.7269 64.3043 21.9109V20.3989H69.5603V34.7029H70.7843V39.0229ZM64.6163 34.7029H67.8083V21.8869H65.9603C65.9603 24.7829 65.8803 27.1189 65.7203 28.8949C65.5763 30.6549 65.2083 32.5909 64.6163 34.7029ZM74.3194 36.1909H72.5914V20.3989H74.3194V36.1909ZM77.178 36.3109C76.602 36.3109 76.13 36.2309 75.762 36.0709V34.9189H76.482C77.314 34.9189 77.842 34.0709 78.066 32.3749C78.29 30.6789 78.402 27.4549 78.402 22.7029V20.3989H83.898V36.1909H82.17V21.8869H80.034V22.7029C80.034 27.9189 79.85 31.4949 79.482 33.4309C79.114 35.3509 78.346 36.3109 77.178 36.3109ZM86.7461 36.3109C86.1701 36.3109 85.6981 36.2309 85.3301 36.0709V34.9189H86.0501C86.8821 34.9189 87.4101 34.0709 87.6341 32.3749C87.8581 30.6789 87.9701 27.4549 87.9701 22.7029V20.3989H93.4661V36.1909H91.7381V21.8869H89.6021V22.7029C89.6021 27.9189 89.4181 31.4949 89.0501 33.4309C88.6821 35.3509 87.9141 36.3109 86.7461 36.3109ZM100.538 29.7109L99.0023 29.8789L97.3943 36.1909H95.6183L97.4183 29.4709C96.3623 28.8629 95.8343 27.9829 95.8343 26.8309V23.2789C95.8343 22.4309 96.1703 21.7029 96.8423 21.0949C97.5303 20.4709 98.3463 20.1589 99.2903 20.1589H99.4103C100.066 20.1589 101.018 20.3589 102.266 20.7589V36.1909H100.538V29.7109ZM97.5623 23.2789V26.9269C97.5623 27.4069 97.7143 27.7989 98.0183 28.1029C98.3383 28.4069 98.7623 28.5589 99.2903 28.5589H100.538V21.6469H99.2903C98.7623 21.6469 98.3383 21.7989 98.0183 22.1029C97.7143 22.4069 97.5623 22.7989 97.5623 23.2789ZM117.323 36.1909H115.595L115.547 22.8469L113.915 32.4229H112.331L110.675 22.8469L110.603 36.1909H108.875L109.187 20.3989H111.275L113.123 29.9269L114.947 20.3989H117.035L117.323 36.1909ZM124.706 36.1909L124.058 31.6309H121.178L120.53 36.1909H118.922L121.346 20.3989H123.962L126.386 36.1909H124.706ZM122.618 21.6469L121.394 30.1429H123.842L122.618 21.6469ZM132.331 18.0229H133.891C133.715 19.2549 132.899 19.8709 131.443 19.8709C129.987 19.8709 129.171 19.2549 128.995 18.0229H130.555C130.555 18.5669 130.851 18.8389 131.443 18.8389C132.035 18.8389 132.331 18.5669 132.331 18.0229ZM134.803 36.1909H133.123V25.2709L129.595 36.1909H128.107V20.3989H129.787V31.3429L133.315 20.3989H134.803V36.1909ZM142.847 35.9749C142.111 36.2789 141.375 36.4309 140.639 36.4309H140.495C139.359 36.4309 138.503 36.1429 137.927 35.5669C137.367 34.9749 137.087 34.2229 137.087 33.3109V23.2789C137.087 22.3669 137.367 21.6229 137.927 21.0469C138.503 20.4549 139.359 20.1589 140.495 20.1589H140.639C141.375 20.1589 142.111 20.3109 142.847 20.6149V21.6469H140.495C139.839 21.6469 139.391 21.7989 139.151 22.1029C138.927 22.3909 138.815 22.7829 138.815 23.2789V33.3109C138.815 33.8069 138.927 34.2069 139.151 34.5109C139.391 34.7989 139.839 34.9429 140.495 34.9429H142.847V35.9749ZM150.93 21.8869H148.29V36.1909H146.562V21.8869H143.922V20.3989H150.93V21.8869ZM158.016 36.1909H152.616V20.3989H158.016V21.8869H154.344V27.0709H157.536V28.5589H154.344V34.7029H158.016V36.1909ZM166.367 27.5509C166.367 28.4149 166.055 29.1509 165.431 29.7589C164.807 30.3669 164.031 30.6709 163.103 30.6709H163.031C162.615 30.6709 162.159 30.5749 161.663 30.3829V36.1909H159.935V20.6389C160.895 20.3189 161.847 20.1589 162.791 20.1589H162.911C163.855 20.1589 164.663 20.4709 165.335 21.0949C166.023 21.7029 166.367 22.4309 166.367 23.2789V27.5509ZM164.639 27.6469V23.2789C164.639 22.7989 164.479 22.4069 164.159 22.1029C163.855 21.7989 163.439 21.6469 162.911 21.6469H161.663V29.2789H162.911C163.439 29.2789 163.855 29.1269 164.159 28.8229C164.479 28.5189 164.639 28.1269 164.639 27.6469Z" fill="#323340"/>
<defs>
<clipPath id="clip0_17_89">
<rect width="24.0269" height="24" fill="white" transform="translate(13.0143 16)"/>
</clipPath>
</defs>
</svg>
