<svg width="20" height="25" viewBox="0 0 20 25" fill="none" xmlns="http://www.w3.org/2000/svg">
<path fill-rule="evenodd" clip-rule="evenodd" d="M4.45825 10.6667C4.45825 9.19693 5.0421 7.78738 6.08137 6.74812C7.12063 5.70885 8.53018 5.125 9.99992 5.125C11.4697 5.125 12.8792 5.70885 13.9185 6.74812C14.9577 7.78738 15.5416 9.19693 15.5416 10.6667C15.5416 12.1364 14.9577 13.546 13.9185 14.5852C12.8792 15.6245 11.4697 16.2083 9.99992 16.2083C8.53018 16.2083 7.12063 15.6245 6.08137 14.5852C5.0421 13.546 4.45825 12.1364 4.45825 10.6667ZM9.99992 6.875C8.99431 6.875 8.02988 7.27448 7.31881 7.98555C6.60773 8.69663 6.20825 9.66105 6.20825 10.6667C6.20825 11.6723 6.60773 12.6367 7.31881 13.3478C8.02988 14.0589 8.99431 14.4583 9.99992 14.4583C11.0055 14.4583 11.97 14.0589 12.681 13.3478C13.3921 12.6367 13.7916 11.6723 13.7916 10.6667C13.7916 9.66105 13.3921 8.69663 12.681 7.98555C11.97 7.27448 11.0055 6.875 9.99992 6.875Z" fill="#3475FF"/>
<path fill-rule="evenodd" clip-rule="evenodd" d="M0.111307 9.33321C0.311246 6.91468 1.41309 4.65969 3.19819 3.01571C4.98329 1.37173 7.32119 0.458906 9.74797 0.458374H10.252C12.6788 0.458906 15.0167 1.37173 16.8018 3.01571C18.5869 4.65969 19.6887 6.91468 19.8886 9.33321C20.111 12.0274 19.2787 14.7027 17.567 16.7952L11.9751 23.633C11.7358 23.9257 11.4345 24.1615 11.0929 24.3234C10.7513 24.4853 10.378 24.5693 9.99997 24.5693C9.62195 24.5693 9.24864 24.4853 8.90705 24.3234C8.56546 24.1615 8.26411 23.9257 8.02481 23.633L2.43297 16.7952C0.721281 14.7027 -0.111098 12.0274 0.111307 9.33321ZM9.74797 2.20837C7.76069 2.20921 5.84632 2.95696 4.38458 4.3033C2.92285 5.64963 2.02054 7.4962 1.85664 9.47671C1.67147 11.7189 2.36414 13.9454 3.78864 15.6869L9.38047 22.5259C9.45564 22.6179 9.55033 22.692 9.65767 22.7429C9.76502 22.7938 9.88234 22.8202 10.0011 22.8202C10.1199 22.8202 10.2373 22.7938 10.3446 22.7429C10.452 22.692 10.5466 22.6179 10.6218 22.5259L16.2136 15.6869C17.6373 13.9451 18.3291 11.7186 18.1433 9.47671C17.9794 7.49599 17.0769 5.64927 15.6149 4.3029C14.153 2.95654 12.2383 2.20892 10.2508 2.20837H9.74797Z" fill="#3475FF"/>
</svg>
