<svg width="28" height="28" viewBox="0 0 28 28" fill="none" xmlns="http://www.w3.org/2000/svg">
<path d="M26 18.578C26 20.734 24.842 22.705 23 23.769V25C23 25.552 22.552 26 22 26C21.448 26 21 25.552 21 25V23.156C21 22.759 21.235 22.399 21.599 22.24C23.057 21.602 24 20.165 24 18.578C24 17.513 23.59 16.308 23 15.509V16.471C23 17.988 21.924 19.306 20.496 19.538C19.62 19.679 18.729 19.435 18.057 18.864C17.385 18.293 17 17.46 17 16.578V15.509C16.41 16.309 16 17.513 16 18.578C16 20.164 16.942 21.601 18.401 22.24C18.765 22.399 19 22.759 19 23.156V25C19 25.552 18.552 26 18 26C17.448 26 17 25.552 17 25V23.769C15.158 22.706 14 20.734 14 18.578C14 16.565 14.952 14.417 16.316 13.356C17.344 12.495 19.044 13.3 19 14.646V16.578C18.989 17.183 19.575 17.679 20.175 17.563C20.637 17.488 21 17.008 21 16.47V14.646C20.956 13.3 22.657 12.495 23.684 13.356C25.048 14.417 26 16.564 26 18.578ZM11.141 17.08C10.764 17.027 10.38 16.999 10 16.999C5.589 17 2 20.589 2 25C2 25.552 2.448 26 3 26C3.552 26 4 25.552 4 25C4 21.691 6.691 19 10 19C10.286 19 10.575 19.021 10.859 19.061C11.406 19.139 11.913 18.758 11.99 18.211C12.068 17.664 11.688 17.158 11.141 17.08ZM2.5 9C2.5 8.448 2.948 8 3.5 8H4V7.5C4 4.467 6.467 2 9.5 2H10.5C13.533 2 16 4.467 16 7.5V8H16.5C17.052 8 17.5 8.448 17.5 9C17.5 9.552 17.052 10 16.5 10H16C16 13.309 13.309 16 10 16C6.691 16 4 13.309 4 10H3.5C2.948 10 2.5 9.552 2.5 9ZM14 10H6C6 12.206 7.794 14 10 14C12.206 14 14 12.206 14 10ZM6 8H14V7.5C14 5.742 12.692 4.296 11 4.051V6C11 6.552 10.552 7 10 7C9.448 7 9 6.552 9 6V4.051C7.308 4.296 6 5.742 6 7.5V8Z" fill="#3475FF"/>
</svg>
