<svg width="28" height="28" viewBox="0 0 28 28" fill="none" xmlns="http://www.w3.org/2000/svg">
<circle cx="14" cy="14" r="13" stroke="#3475FF" stroke-width="2"/>
<path d="M11.293 7.63599C11.1055 7.82351 11.0002 8.07782 11.0002 8.34299C11.0002 8.60815 11.1055 8.86246 11.293 9.04999L16.243 14L11.293 18.95C11.1108 19.1386 11.01 19.3912 11.0123 19.6534C11.0146 19.9156 11.1197 20.1664 11.3051 20.3518C11.4905 20.5372 11.7414 20.6424 12.0036 20.6447C12.2657 20.6469 12.5183 20.5461 12.707 20.364L18.364 14.707C18.5514 14.5195 18.6567 14.2652 18.6567 14C18.6567 13.7348 18.5514 13.4805 18.364 13.293L12.707 7.63599C12.5194 7.44852 12.2651 7.3432 12 7.3432C11.7348 7.3432 11.4805 7.44852 11.293 7.63599Z" fill="#3475FF"/>
</svg>
