<svg width="28" height="28" viewBox="0 0 28 28" fill="none" xmlns="http://www.w3.org/2000/svg">
<path d="M14.9002 3.91964C14.9002 3.67613 14.997 3.44258 15.1691 3.27039C15.3413 3.0982 15.5749 3.00147 15.8184 3.00147C18.2527 3.00414 20.5865 3.97236 22.3078 5.69369C24.0291 7.41502 24.9973 9.74888 25 12.1832C25 12.4267 24.9033 12.6603 24.7311 12.8325C24.5589 13.0047 24.3253 13.1014 24.0818 13.1014C23.8383 13.1014 23.6048 13.0047 23.4326 12.8325C23.2604 12.6603 23.1637 12.4267 23.1637 12.1832C23.1615 10.2358 22.3869 8.3687 21.0099 6.99165C19.6328 5.61459 17.7658 4.84 15.8184 4.83782C15.5749 4.83782 15.3413 4.74108 15.1691 4.56889C14.997 4.3967 14.9002 4.16316 14.9002 3.91964ZM15.8184 8.51052C16.7924 8.51052 17.7266 8.89746 18.4153 9.58622C19.1041 10.275 19.491 11.2092 19.491 12.1832C19.491 12.4267 19.5878 12.6603 19.76 12.8325C19.9321 13.0047 20.1657 13.1014 20.4092 13.1014C20.6527 13.1014 20.8862 13.0047 21.0584 12.8325C21.2306 12.6603 21.3274 12.4267 21.3274 12.1832C21.3259 10.7226 20.745 9.32217 19.7122 8.28934C18.6794 7.25651 17.279 6.67562 15.8184 6.67417C15.5749 6.67417 15.3413 6.7709 15.1691 6.94309C14.997 7.11528 14.9002 7.34883 14.9002 7.59234C14.9002 7.83586 14.997 8.0694 15.1691 8.24159C15.3413 8.41378 15.5749 8.51052 15.8184 8.51052ZM24.1672 18.3708C24.6993 18.9044 24.9981 19.6271 24.9981 20.3807C24.9981 21.1342 24.6993 21.857 24.1672 22.3906L23.3317 23.3537C15.812 30.5531 -2.487 12.2585 4.6012 4.71478L5.65709 3.79661C6.19125 3.27938 6.90756 2.99325 7.65106 3.00012C8.39457 3.00699 9.10547 3.30632 9.62997 3.83333C9.65844 3.8618 11.3598 6.07184 11.3598 6.07184C11.8646 6.60221 12.1456 7.30672 12.1445 8.03894C12.1433 8.77116 11.8599 9.47476 11.3534 10.0035L10.2901 11.3403C10.8785 12.77 11.7436 14.0694 12.8357 15.1637C13.9278 16.258 15.2254 17.1258 16.6539 17.7171L17.999 16.6474C18.5278 16.1412 19.2312 15.8582 19.9632 15.8572C20.6952 15.8562 21.3995 16.1372 21.9297 16.6419C21.9297 16.6419 24.1388 18.3423 24.1672 18.3708ZM22.9038 19.7058C22.9038 19.7058 20.7067 18.0155 20.6782 17.987C20.4891 17.7994 20.2335 17.6942 19.9671 17.6942C19.7007 17.6942 19.4451 17.7994 19.256 17.987C19.2312 18.0127 17.3793 19.4882 17.3793 19.4882C17.2545 19.5876 17.1059 19.6527 16.9483 19.6771C16.7907 19.7016 16.6294 19.6846 16.4804 19.6278C14.6298 18.9388 12.9489 17.86 11.5515 16.4647C10.1542 15.0694 9.07302 13.3901 8.38127 11.5405C8.31994 11.3894 8.29994 11.2247 8.32334 11.0634C8.34674 10.902 8.41269 10.7498 8.51441 10.6223C8.51441 10.6223 9.98989 8.76944 10.0147 8.74557C10.2022 8.55641 10.3075 8.30082 10.3075 8.03444C10.3075 7.76806 10.2022 7.51247 10.0147 7.32332C9.98622 7.29577 8.29589 5.09674 8.29589 5.09674C8.1039 4.92459 7.85333 4.83239 7.59556 4.83905C7.33778 4.84571 7.09231 4.95072 6.90946 5.13255L5.85358 6.05072C0.673308 12.2796 16.5309 27.2578 21.9893 22.0995L22.8258 21.1354C23.0218 20.9539 23.1395 20.7032 23.1541 20.4364C23.1687 20.1696 23.0789 19.9076 22.9038 19.7058Z" fill="#3475FF"/>
</svg>
