<svg width="28" height="28" viewBox="0 0 28 28" fill="none" xmlns="http://www.w3.org/2000/svg">
<circle cx="14" cy="14" r="13" stroke="#3475FF" stroke-width="2"/>
<path d="M16.707 7.63599C16.8945 7.82351 16.9998 8.07782 16.9998 8.34299C16.9998 8.60815 16.8945 8.86246 16.707 9.04999L11.757 14L16.707 18.95C16.8892 19.1386 16.99 19.3912 16.9877 19.6534C16.9854 19.9156 16.8803 20.1664 16.6949 20.3518C16.5095 20.5372 16.2586 20.6424 15.9964 20.6447C15.7343 20.6469 15.4817 20.5461 15.293 20.364L9.63605 14.707C9.44858 14.5195 9.34326 14.2652 9.34326 14C9.34326 13.7348 9.44858 13.4805 9.63605 13.293L15.293 7.63599C15.4806 7.44852 15.7349 7.3432 16 7.3432C16.2652 7.3432 16.5195 7.44852 16.707 7.63599Z" fill="#3475FF"/>
</svg>
